<svg width="505" height="697" viewBox="0 0 505 697" fill="none" xmlns="http://www.w3.org/2000/svg">
<path d="M417.561 642.211C465.455 642.211 504.281 603.385 504.281 555.491C504.281 507.596 465.455 468.771 417.561 468.771C369.667 468.771 330.841 507.596 330.841 555.491C330.841 603.385 369.667 642.211 417.561 642.211Z" fill="#3B82F6"/>
<path d="M359.647 462.609C347.627 462.609 335.865 459.126 325.784 452.581C315.704 446.035 307.736 436.708 302.847 425.728L165.242 115.84C160.677 105.574 158.26 94.4821 158.14 83.2474C158.021 72.0127 160.201 60.8723 164.547 50.5114C168.892 40.1504 175.312 30.7881 183.41 23.0001C191.508 15.2121 201.114 9.16312 211.636 5.2252C222.159 1.28729 233.376 -0.456316 244.597 0.101638C255.819 0.659593 266.808 3.50731 276.888 8.46963C286.968 13.432 295.926 20.404 303.212 28.9569C310.497 37.5098 315.956 47.4628 319.253 58.2036L418.898 382.304C421.75 391.581 422.388 401.397 420.758 410.965C419.129 420.533 415.278 429.585 409.516 437.395C403.753 445.204 396.239 451.554 387.578 455.933C378.916 460.312 369.348 462.598 359.643 462.609H359.647Z" fill="#3B82F6"/>
<path d="M65.2842 286.732L57.2582 317.332L26.6572 311.315C26.6572 311.315 38.6972 289.242 35.6872 279.208L65.2872 286.733L65.2842 286.732Z" fill="#FFB6B6"/>
<path d="M37.0363 685.409H55.4643L64.2303 614.33H37.0303L37.0363 685.409Z" fill="#FFB6B6"/>
<path d="M100.171 684.991C100.754 686.666 101.05 688.428 101.048 690.201C101.048 691.023 100.887 691.836 100.572 692.595C100.258 693.354 99.7974 694.044 99.2165 694.624C98.6357 695.205 97.9461 695.666 97.1871 695.98C96.4282 696.295 95.6147 696.456 94.7933 696.456H37.7263C36.5943 696.456 35.5088 696.006 34.7084 695.206C33.908 694.406 33.4583 693.32 33.4583 692.188V689.812C33.4583 689.812 30.6343 682.671 36.4473 673.869C36.4473 673.869 43.6713 680.761 54.4663 669.969L57.6493 664.202L80.6913 681.053L93.4633 682.625C96.2583 682.969 98.7353 682.571 100.172 684.993L100.171 684.991Z" fill="#2F2E41"/>
<path d="M88.2027 479.705L62.8077 652.502H30.9507L35.1867 553.866L37.4167 502.003L30.9457 477.317C28.8927 473.383 27.0791 469.329 25.5147 465.178C22.7147 457.672 20.5047 448.672 23.7867 444.406C24.9937 442.832 28.1347 441.669 32.4027 440.806C35.3521 440.233 38.3285 439.809 41.3207 439.537C60.1617 437.673 86.9597 438.837 86.9597 438.837L87.6407 461.319L88.0177 473.873L88.1967 479.713L88.2027 479.705Z" fill="#2F2E41"/>
<path d="M4.57227 676.958L22.8043 679.637L41.8173 610.588L14.9093 606.634L4.57227 676.958Z" fill="#FFB6B6"/>
<path d="M67.0983 685.727C67.4306 687.468 67.4677 689.254 67.2082 691.008C67.0888 691.82 66.8104 692.602 66.3889 693.307C65.9675 694.012 65.4112 694.628 64.7518 695.118C64.0925 695.608 63.3431 695.964 62.5463 696.164C61.7495 696.365 60.9211 696.406 60.1082 696.287L3.64525 687.987C2.52596 687.822 1.51801 687.219 0.84295 686.311C0.167895 685.403 -0.119027 684.264 0.0452439 683.145L0.391245 680.795C0.391245 680.795 -1.36276 673.319 5.66824 665.457C5.66824 665.457 11.8122 673.326 24.0632 664.218L28.0562 658.975L48.4012 679L60.8082 682.413C63.5232 683.159 66.0312 683.128 67.1012 685.731L67.0983 685.727Z" fill="#2F2E41"/>
<path d="M88.6068 450.884L85.1238 480.879L66.1288 544.089L34.8568 648.148L3.34082 643.513L31.6268 495.559L28.8268 470.189C28.8268 470.189 27.9138 467.667 26.8688 463.974C24.7938 456.674 22.1878 444.774 25.0538 438.708C25.411 437.917 25.9103 437.199 26.5268 436.588C27.6528 435.496 29.9428 434.833 33.0098 434.48C45.8288 433.032 72.2298 437.18 83.9768 439.209L88.6008 450.886L88.6068 450.884Z" fill="#2F2E41"/>
<path d="M64.3169 308.647L98.9319 352.29L92.7189 397.79L87.394 444.09L24.6859 434.559C24.6859 434.559 38.2299 401.951 39.7359 400.446C41.2419 398.941 45.0209 402.658 42.3779 397.789C39.7349 392.92 36.7249 392.921 39.2339 390.412C41.7429 387.903 19.6689 355.296 19.6689 337.738C19.6689 320.18 30.1989 306.137 30.1989 306.137L64.3169 308.647Z" fill="#2D3032"/>
<path d="M56.2448 292.853C69.1229 292.853 79.5628 282.413 79.5628 269.535C79.5628 256.657 69.1229 246.217 56.2448 246.217C43.3666 246.217 32.9268 256.657 32.9268 269.535C32.9268 282.413 43.3666 292.853 56.2448 292.853Z" fill="#FFB6B6"/>
<path d="M55.1551 314.119C55.1551 314.119 58.6441 286.511 59.2621 278.481C59.8801 270.451 71.2131 257.917 71.2131 257.917L79.2421 264.401C79.2421 264.401 86.0361 264.401 81.4031 254.519C80.2069 251.728 78.3887 249.248 76.0872 247.267C73.7857 245.287 71.062 243.859 68.1241 243.092C68.1241 243.092 67.4991 235.204 51.4411 236.747C41.8851 237.725 33.0261 238.006 27.9791 246.179L23.5541 257.917C23.5541 257.917 19.9481 265.946 21.8011 273.357C23.6541 280.768 -2.59893 314.428 9.45007 318.138C21.4991 321.848 48.3591 330.804 51.4401 324.932C53.2574 321.556 54.5093 317.904 55.1461 314.123L55.1551 314.119Z" fill="#2F2E41"/>
<path d="M222.398 241.03C218.857 236.454 210.164 237.25 202.973 242.809C200.07 244.991 197.731 247.837 196.153 251.108L192.063 254.357L134.8 296.12C134.8 296.12 78.6898 318.182 72.4284 325.148C70.6086 327.26 69.3347 329.786 68.7186 332.505C68.1024 335.225 68.1628 338.053 68.8943 340.744L76.8066 347.722L155.463 309.76L199.843 269.339L206.04 263.891C209.604 263.187 212.947 261.64 215.789 259.38C222.98 253.822 225.941 245.605 222.405 241.029L222.398 241.03Z" fill="#FFB6B6"/>
<path d="M64.2822 349.825C64.2822 349.825 120.19 341.069 128.804 329.181L110.732 304.252C110.732 304.252 110.716 302.125 106.113 305.921C101.509 309.718 91.9586 308.369 91.9586 308.369C91.9586 308.369 94.3186 306.672 90.9922 310.43C87.6658 314.188 65.8223 309.807 65.8223 309.807L64.2822 349.825Z" fill="#2D3032"/>
</svg>
